<?xml version="1.0" encoding="utf-8"?>
<!-- Generator: Adobe Illustrator 24.3.0, SVG Export Plug-In . SVG Version: 6.00 Build 0)  -->
<svg version="1.1" id="Layer_1" xmlns="http://www.w3.org/2000/svg" xmlns:xlink="http://www.w3.org/1999/xlink" x="0px" y="0px"
	 viewBox="0 0 1080 1080" style="enable-background:new 0 0 1080 1080;" xml:space="preserve">
<style type="text/css">
	.st0{fill-rule:evenodd;clip-rule:evenodd;}
	.st1{fill:#324464;}
	.st2{fill:#D63048;}
</style>
<g>
	<g id="XMLID_48_">
		<path id="XMLID_50_" class="st1" d="M620.27,247.11c-22.68-25.11-50.56-45.12-83.59-60.08c-33.02-14.94-70.57-22.42-112.65-22.42
			c-40.61,0-76.78,7.39-108.52,22.13c-31.73,14.78-58.5,34.42-80.26,58.96c-21.78,24.56-38.29,52.88-49.56,84.98
			c-11.26,32.1-16.88,65.52-16.88,100.21v429.58c0,10.72,3.61,19.66,10.8,26.86c7.2,7.2,16.14,10.8,26.83,10.8
			c10.72,0,19.75-3.61,27.14-10.8c7.37-7.2,11.07-16.14,11.07-26.86V436.45c0-29.15,4.33-55.81,13.01-80
			c8.66-24.17,20.93-44.92,36.81-62.28c15.88-17.34,34.88-30.81,57.04-40.41c22.13-9.58,46.87-14.39,74.18-14.39
			c27.67,0,53.03,5.18,76.11,15.51c23.07,10.34,42.91,24.56,59.53,42.62c5.47,5.95,10.54,12.27,15.22,18.96
			c5.05-3.7,10.3-7.15,15.72-10.39c7.68-4.61,15.7-8.73,24.12-12.42c9.99-4.37,20.32-7.89,30.97-10.52
			C639.41,270.27,630.36,258.27,620.27,247.11z"/>
	</g>
	<g id="XMLID_41_">
		<path id="XMLID_42_" class="st2" d="M894.55,446.08c-11.11-27.07-26.31-50.28-45.6-69.61c-19.31-19.33-41.88-34.53-67.71-45.66
			c-25.85-11.09-53.36-16.64-82.56-16.64c-11.53,0-22.77,0.85-33.66,2.56c-16.97,2.62-33.2,7.33-48.64,14.08
			c-8.42,3.7-16.45,7.81-24.12,12.42c-15.51,9.23-29.5,20.32-42.01,33.24c-18.7,19.33-33.35,42.54-44,69.61
			c-10.65,27.1-15.96,55.24-15.96,84.46v352.43c0,9.12,3.13,16.82,9.36,23.05c6.23,6.23,13.78,9.36,22.61,9.36
			c8.81,0,15.96-3.13,21.45-9.36c5.47-6.23,8.2-13.93,8.2-23.05l1.38-209.09c2.12,2.45,4.18,5.25,6.17,8.44
			c1.97,3.21,4.18,5.88,6.6,8l48.4,46.43l75.84,72.74l99.92,95.83c6.69,6.71,14.43,10.06,23.27,10.06c8.53,0,15.83-3.19,21.91-9.6
			c6.08-6.39,9.14-13.69,9.14-21.91c0-8.2-2.91-15.07-8.7-20.54L702.8,735.51c27.97-1.2,54.56-7,79.8-17.34s47.35-24.43,66.35-42.23
			s34.12-39.04,45.38-63.68c11.24-24.65,16.86-51.87,16.86-81.7C911.2,501.33,905.66,473.18,894.55,446.08z M838.85,586.92
			c-7.76,18.11-18.35,33.85-31.73,47.24c-13.41,13.41-29.06,24.06-47.02,31.95c-17.95,7.92-37.13,11.88-57.52,11.88
			c-4.16,0-8.24-0.15-12.27-0.48c-16.1-1.22-31.25-4.94-45.49-11.15c-10.98-4.79-21.1-10.65-30.35-17.58
			c-5.75-4.29-11.15-9.01-16.21-14.15c-13.23-13.38-23.66-29.06-31.27-47.02c-7.61-17.95-11.42-37.13-11.42-57.52
			c0-20.38,3.81-40.09,11.42-59.11c7.61-19.03,18.04-35.23,31.27-48.62c4.42-4.48,9.1-8.66,14.04-12.49
			c9.84-7.68,20.67-14.08,32.52-19.25c12.53-5.47,25.78-9.01,39.76-10.61c5.86-0.7,11.85-1.03,18-1.03
			c20.38,0,39.56,3.81,57.52,11.39c17.95,7.63,33.61,17.98,47.02,31.05c13.38,13.08,23.97,29.15,31.73,48.16
			c7.76,19.03,11.63,38.73,11.63,59.11C850.48,549.41,846.61,568.82,838.85,586.92z"/>
	</g>
</g>
</svg>
